<svg xmlns="http://www.w3.org/2000/svg" width="655.359" height="655.359" fill-rule="evenodd"
    clip-rule="evenodd" image-rendering="optimizeQuality" shape-rendering="geometricPrecision"
    text-rendering="geometricPrecision" viewBox="0 0 6.827 6.827" id="muslim">
    <path fill-rule="nonzero"
        d="M3.996 1.857a.164.164 0 0 0-.118.028.098.098 0 0 0-.041.074.125.125 0 0 0 .041.092.2.2 0 0 0 .133.056.164.164 0 0 0 .104-.03.098.098 0 0 0 .042-.074.125.125 0 0 0-.041-.092.2.2 0 0 0-.12-.054zm-.008-.16a.37.37 0 0 1 .24.1.283.283 0 0 1 .087.229.256.256 0 0 1-.105.18.323.323 0 0 1-.229.059.36.36 0 0 1-.215-.1.283.283 0 0 1-.087-.228.256.256 0 0 1 .105-.18.323.323 0 0 1 .204-.06z"></path>
    <path fill-rule="nonzero"
        d="M3.47 1.97a.182.182 0 0 0-.024.005.133.133 0 0 0-.075.045.093.093 0 0 0-.017.08.15.15 0 0 0 .069.09.205.205 0 0 0 .153.026.133.133 0 0 0 .075-.045.093.093 0 0 0 .017-.081A.15.15 0 0 0 3.599 2a.205.205 0 0 0-.13-.03zm-.062-.15a.365.365 0 0 1 .276.047.31.31 0 0 1 .145.22.25.25 0 0 1-.053.182.292.292 0 0 1-.207.11.365.365 0 0 1-.231-.055.31.31 0 0 1-.145-.22.25.25 0 0 1 .053-.183.292.292 0 0 1 .162-.101z"></path>
    <path fill-rule="nonzero"
        d="M2.968 2.12a.153.153 0 0 0-.024.01.109.109 0 0 0-.05.054.096.096 0 0 0-.002.067.127.127 0 0 0 .01.02c.018.036.053.063.094.078a.196.196 0 0 0 .13.005.152.152 0 0 0 .023-.01.109.109 0 0 0 .05-.054.096.096 0 0 0 .002-.068.127.127 0 0 0-.009-.02.176.176 0 0 0-.094-.078.196.196 0 0 0-.13-.004zm-.1-.13a.356.356 0 0 1 .464.137.254.254 0 0 1 .014.224.268.268 0 0 1-.17.154.356.356 0 0 1-.415-.158.254.254 0 0 1-.014-.224.268.268 0 0 1 .122-.133z"></path>
    <path fill-rule="nonzero"
        d="M2.474 2.211a.126.126 0 0 0-.018.013.095.095 0 0 0-.031.06.11.11 0 0 0 .017.071.196.196 0 0 0 .13.081c.043.007.087 0 .121-.02a.126.126 0 0 0 .018-.013.095.095 0 0 0 .031-.06.11.11 0 0 0-.017-.071.152.152 0 0 0-.016-.021.196.196 0 0 0-.115-.06.176.176 0 0 0-.12.02zm-.124-.106a.335.335 0 0 1 .27-.073.357.357 0 0 1 .24.155.268.268 0 0 1 .041.176.254.254 0 0 1-.123.188.357.357 0 0 1-.471-.111.268.268 0 0 1-.041-.176.254.254 0 0 1 .084-.159z"></path>
    <path fill-rule="nonzero"
        d="M2.031 2.401a.109.109 0 0 0-.009.011v.002a.092.092 0 0 0-.016.067.133.133 0 0 0 .043.076l.018.015c.038.027.084.04.128.038a.15.15 0 0 0 .103-.043.092.092 0 0 0 .025-.08.133.133 0 0 0-.043-.075.205.205 0 0 0-.146-.053.15.15 0 0 0-.103.042zm-.074-.035-.065-.047a.309.309 0 0 1 .235-.12.365.365 0 0 1 .263.096.293.293 0 0 1 .091.17.25.25 0 0 1-.067.211.309.309 0 0 1-.212.093.365.365 0 0 1-.263-.096.293.293 0 0 1-.091-.17.25.25 0 0 1 .044-.184l.065.047z"></path>
    <path fill-rule="nonzero"
        d="M1.665 2.68a.098.098 0 0 0 0 .085.165.165 0 0 0 .087.082.2.2 0 0 0 .13.012.124.124 0 0 0 .084-.065.098.098 0 0 0-.002-.08.165.165 0 0 0-.088-.082.2.2 0 0 0-.131-.012.124.124 0 0 0-.08.06zm-.15-.06a.283.283 0 0 1 .189-.155.36.36 0 0 1 .257.03c.07.037.122.092.15.155a.256.256 0 0 1-.006.224.283.283 0 0 1-.182.14.36.36 0 0 1-.257-.03.324.324 0 0 1-.148-.155.256.256 0 0 1-.002-.209z"></path>
    <path fill-rule="nonzero"
        d="M1.394 3.028a.113.113 0 0 0 .026.091.19.19 0 0 0 .114.067.18.18 0 0 0 .12-.015.105.105 0 0 0 .055-.068V3.1a.113.113 0 0 0-.025-.091.19.19 0 0 0-.114-.067.18.18 0 0 0-.12.015.105.105 0 0 0-.056.069v.001zm-.1.19a.27.27 0 0 1-.056-.225.263.263 0 0 1 .136-.175.34.34 0 0 1 .234-.03.352.352 0 0 1 .201.123.27.27 0 0 1 .056.225.263.263 0 0 1-.135.176.34.34 0 0 1-.234.03.352.352 0 0 1-.202-.124z"></path>
    <path fill-rule="nonzero"
        d="M1.234 3.431a.136.136 0 0 0 .053.091.203.203 0 0 0 .144.044.15.15 0 0 0 .09-.038.094.094 0 0 0 .031-.078.136.136 0 0 0-.053-.09.203.203 0 0 0-.145-.044.15.15 0 0 0-.09.037.094.094 0 0 0-.031.068h-.08.08v.01zm-.048.215a.294.294 0 0 1-.113-.227c.001-.07.031-.134.081-.181a.309.309 0 0 1 .221-.082.365.365 0 0 1 .224.08.294.294 0 0 1 .113.226c0 .071-.03.135-.08.182a.309.309 0 0 1-.222.082.365.365 0 0 1-.224-.08z"></path>
    <path fill-rule="nonzero"
        d="M1.194 3.865a.162.162 0 0 0 .08.085.203.203 0 0 0 .156.012.12.12 0 0 0 .063-.05.093.093 0 0 0 .006-.084.162.162 0 0 0-.08-.084.203.203 0 0 0-.156-.012.121.121 0 0 0-.063.05.093.093 0 0 0-.006.083zm.008.227a.322.322 0 0 1-.17-.212.25.25 0 0 1 .031-.181.28.28 0 0 1 .193-.13.362.362 0 0 1 .235.032c.072.037.13.096.158.17v.002l-.075.028.075-.028a.25.25 0 0 1-.02.222.28.28 0 0 1-.142.116h-.001l-.028-.074.027.075a.362.362 0 0 1-.284-.02z"></path>
    <path fill-rule="nonzero"
        d="M1.277 4.306c.024.035.062.06.105.072a.188.188 0 0 0 .148-.02.1.1 0 0 0 .042-.056.101.101 0 0 0-.007-.069.135.135 0 0 0-.012-.02.186.186 0 0 0-.104-.072.188.188 0 0 0-.127.007.138.138 0 0 0-.022.012.102.102 0 0 0-.041.056.101.101 0 0 0 .006.07.135.135 0 0 0 .012.02zm.062.225a.346.346 0 0 1-.22-.18.258.258 0 0 1 .137-.348.348.348 0 0 1 .235-.016.346.346 0 0 1 .22.18.258.258 0 0 1-.09.323l-.046-.066.045.066a.348.348 0 0 1-.28.042z"></path>
    <path fill-rule="nonzero"
        d="M1.48 4.73c.034.03.078.047.122.05a.165.165 0 0 0 .114-.031.093.093 0 0 0 .039-.075.12.12 0 0 0-.028-.075.201.201 0 0 0-.14-.07.165.165 0 0 0-.113.032.093.093 0 0 0-.039.075c0 .024.01.05.028.074a.167.167 0 0 0 .018.02zm.112.21a.362.362 0 0 1-.254-.13.278.278 0 0 1-.062-.174.251.251 0 0 1 .098-.2.324.324 0 0 1 .224-.066.362.362 0 0 1 .254.13.278.278 0 0 1 .062.173.251.251 0 0 1-.098.2.324.324 0 0 1-.224.066z"></path>
    <path fill-rule="nonzero"
        d="M1.794 5.108a.204.204 0 0 0 .13.026.138.138 0 0 0 .093-.05.094.094 0 0 0 .015-.082.147.147 0 0 0-.057-.078.204.204 0 0 0-.147-.037.138.138 0 0 0-.094.05.094.094 0 0 0-.015.082.147.147 0 0 0 .057.078c.005.003.01.007.018.01zm.152.184a.364.364 0 0 1-.264-.067.307.307 0 0 1-.116-.164.251.251 0 0 1 .04-.218.297.297 0 0 1 .2-.115.364.364 0 0 1 .263.067c.06.044.1.102.117.164a.251.251 0 0 1-.04.219.297.297 0 0 1-.2.114z"></path>
    <path fill-rule="nonzero"
        d="M2.197 5.42a.193.193 0 0 0 .129 0 .114.114 0 0 0 .07-.064v-.003a.104.104 0 0 0-.011-.086.178.178 0 0 0-.094-.074l-.005-.002a.193.193 0 0 0-.129 0 .114.114 0 0 0-.07.065v.003a.105.105 0 0 0 .012.086.178.178 0 0 0 .092.074l.006.002zm.185.15a.353.353 0 0 1-.236.002l-.01-.003a.338.338 0 0 1-.175-.144.261.261 0 0 1-.026-.218l.076.026-.076-.026a.272.272 0 0 1 .166-.165.353.353 0 0 1 .236-.002l.01.003c.077.029.139.081.175.143a.26.26 0 0 1 .026.218l-.002.007a.272.272 0 0 1-.164.159z"></path>
    <path fill-rule="nonzero"
        d="M2.667 5.649a.167.167 0 0 0 .12-.025.099.099 0 0 0 .043-.075.123.123 0 0 0-.038-.092.197.197 0 0 0-.13-.058.168.168 0 0 0-.107.027.099.099 0 0 0-.044.074.123.123 0 0 0 .039.092c.028.03.07.05.117.057zm.001.16a.36.36 0 0 1-.234-.107.28.28 0 0 1-.08-.227.257.257 0 0 1 .11-.18.327.327 0 0 1 .23-.053c.085.01.16.05.213.105a.28.28 0 0 1 .082.227.257.257 0 0 1-.111.18.327.327 0 0 1-.21.055z"></path>
    <path fill-rule="nonzero"
        d="M3.177 5.779a.183.183 0 0 0 .023-.004.136.136 0 0 0 .078-.043l.061.05-.061-.05a.092.092 0 0 0 .02-.08.147.147 0 0 0-.066-.09.205.205 0 0 0-.153-.03.136.136 0 0 0-.077.044.093.093 0 0 0-.02.08.147.147 0 0 0 .066.09.205.205 0 0 0 .13.033zm.057.153a.365.365 0 0 1-.273-.053.307.307 0 0 1-.14-.223.25.25 0 0 1 .058-.182.295.295 0 0 1 .211-.105.365.365 0 0 1 .23.06.307.307 0 0 1 .139.223.25.25 0 0 1-.058.182.295.295 0 0 1-.167.098z"></path>
    <path fill-rule="nonzero"
        d="M3.696 5.804a.155.155 0 0 0 .025-.01.11.11 0 0 0 .052-.052c.01-.02.011-.044.004-.068a.124.124 0 0 0-.008-.02.174.174 0 0 0-.092-.079.197.197 0 0 0-.155.003.11.11 0 0 0-.052.052.095.095 0 0 0-.004.068.124.124 0 0 0 .008.02.174.174 0 0 0 .092.079c.041.016.088.02.13.007zm.097.133a.358.358 0 0 1-.46-.147.253.253 0 0 1-.008-.224.27.27 0 0 1 .175-.15.358.358 0 0 1 .411.167.253.253 0 0 1 .008.224.27.27 0 0 1-.126.13z"></path>
    <path fill-rule="nonzero"
        d="M4.195 5.724a.128.128 0 0 0 .018-.013.096.096 0 0 0 .033-.059.108.108 0 0 0-.015-.07.149.149 0 0 0-.015-.022.194.194 0 0 0-.113-.063.178.178 0 0 0-.122.019.128.128 0 0 0-.018.012.096.096 0 0 0-.034.06.108.108 0 0 0 .016.07.15.15 0 0 0 .015.021c.028.034.07.055.113.063a.178.178 0 0 0 .122-.018zm.121.108a.338.338 0 0 1-.272.067.355.355 0 0 1-.237-.16.255.255 0 0 1 .093-.361.355.355 0 0 1 .469.122.255.255 0 0 1-.052.332z"></path>
    <path fill-rule="nonzero"
        d="M4.585 5.49a.092.092 0 0 0 .028-.078.13.13 0 0 0-.04-.077.204.204 0 0 0-.145-.057.153.153 0 0 0-.105.041.092.092 0 0 0-.028.078.13.13 0 0 0 .04.076.204.204 0 0 0 .145.057.153.153 0 0 0 .105-.04zm.138.084a.312.312 0 0 1-.239.116.365.365 0 0 1-.262-.103.29.29 0 0 1-.086-.17.25.25 0 0 1 .073-.21.312.312 0 0 1 .215-.088.365.365 0 0 1 .262.103c.05.05.078.11.086.17a.25.25 0 0 1-.05.182z"></path>
    <path fill-rule="nonzero"
        d="M4.801 5.136a.098.098 0 0 0 .003-.085.16.16 0 0 0-.085-.085.2.2 0 0 0-.13-.014.127.127 0 0 0-.087.064.098.098 0 0 0 0 .079.16.16 0 0 0 .085.084.2.2 0 0 0 .13.014.127.127 0 0 0 .084-.057zm.148.06a.285.285 0 0 1-.194.151.361.361 0 0 1-.259-.036.321.321 0 0 1-.142-.156.254.254 0 0 1 .011-.223.285.285 0 0 1 .186-.135.361.361 0 0 1 .259.037.321.321 0 0 1 .143.156.254.254 0 0 1-.004.207z"></path>
    <path fill-rule="nonzero"
        d="M4.98 4.72a.112.112 0 0 0-.024-.087.19.19 0 0 0-.107-.068h-.003a.182.182 0 0 0-.123.012.107.107 0 0 0-.058.068v.002l-.001.003c-.006.03.004.06.023.087a.19.19 0 0 0 .108.068h.003l.004.001a.182.182 0 0 0 .119-.013.107.107 0 0 0 .058-.068v-.002l.001-.003zm.104-.183a.27.27 0 0 1 .051.223v.002a.264.264 0 0 1-.142.174.343.343 0 0 1-.231.025h-.004V4.96a.35.35 0 0 1-.198-.127.27.27 0 0 1-.051-.223v-.002a.264.264 0 0 1 .142-.174.343.343 0 0 1 .231-.025h.004a.35.35 0 0 1 .198.128z"></path>
    <path fill-rule="nonzero"
        d="M5.04 4.292a.135.135 0 0 0-.05-.087.203.203 0 0 0-.142-.047.153.153 0 0 0-.094.036.095.095 0 0 0-.033.077l-.08.004.08-.004a.135.135 0 0 0 .05.091.203.203 0 0 0 .143.047.153.153 0 0 0 .094-.036.095.095 0 0 0 .032-.077l.08-.005-.08.005a.08.08 0 0 1 0-.004zm.053-.21a.293.293 0 0 1 .107.205.257.257 0 0 1-.086.205.313.313 0 0 1-.224.076.363.363 0 0 1-.221-.084.293.293 0 0 1-.107-.204.257.257 0 0 1 .086-.205.313.313 0 0 1 .223-.077.363.363 0 0 1 .222.085z"></path>
    <path fill-rule="nonzero"
        d="M5.093 3.864a.16.16 0 0 0-.077-.086.203.203 0 0 0-.156-.015.123.123 0 0 0-.066.048.092.092 0 0 0-.012.07c0 .005.002.01.003.014a.16.16 0 0 0 .078.085.203.203 0 0 0 .156.016.124.124 0 0 0 .065-.049.092.092 0 0 0 .013-.069.11.11 0 0 0-.004-.014zm-.002-.226a.319.319 0 0 1 .164.214.25.25 0 0 1-.036.182.283.283 0 0 1-.197.126.364.364 0 0 1-.234-.039.319.319 0 0 1-.164-.215.25.25 0 0 1 .036-.18.283.283 0 0 1 .197-.127.364.364 0 0 1 .234.039z"></path>
    <path fill-rule="nonzero"
        d="M5.023 3.422a.184.184 0 0 0-.102-.072.19.19 0 0 0-.128.004.142.142 0 0 0-.022.012.103.103 0 0 0-.044.055.1.1 0 0 0 .005.069.134.134 0 0 0 .011.02c.023.036.06.06.102.073a.19.19 0 0 0 .128-.004.142.142 0 0 0 .022-.012.103.103 0 0 0 .044-.055.1.1 0 0 0-.005-.069.134.134 0 0 0-.011-.02zm-.057-.225a.344.344 0 0 1 .215.184.257.257 0 0 1-.146.345.35.35 0 0 1-.236.01.344.344 0 0 1-.214-.184.257.257 0 0 1 .146-.345.35.35 0 0 1 .235-.01z"></path>
    <path fill-rule="nonzero"
        d="M4.92 2.982a.2.2 0 0 0-.12-.054.168.168 0 0 0-.116.03.119.119 0 0 0-.015.012.093.093 0 0 0-.026.062c-.001.024.007.05.025.073a.2.2 0 0 0 .138.073.168.168 0 0 0 .115-.029.119.119 0 0 0 .015-.012.093.093 0 0 0 .026-.062A.117.117 0 0 0 4.937 3a.164.164 0 0 0-.018-.02zm-.107-.212a.362.362 0 0 1 .252.136c.04.053.059.114.057.173a.252.252 0 0 1-.105.198.326.326 0 0 1-.225.06.362.362 0 0 1-.251-.136.275.275 0 0 1-.058-.173.252.252 0 0 1 .105-.198.326.326 0 0 1 .225-.06z"></path>
    <path fill-rule="nonzero"
        d="M4.722 2.537a.205.205 0 0 0-.13-.029.14.14 0 0 0-.096.049.094.094 0 0 0-.017.081.144.144 0 0 0 .053.078.204.204 0 0 0 .147.04.141.141 0 0 0 .097-.048.094.094 0 0 0 .017-.081.144.144 0 0 0-.054-.078.19.19 0 0 0-.017-.012zm-.148-.188a.364.364 0 0 1 .263.074.303.303 0 0 1 .11.166.25.25 0 0 1-.046.217.3.3 0 0 1-.203.11.365.365 0 0 1-.264-.075.303.303 0 0 1-.11-.165.25.25 0 0 1 .046-.217.3.3 0 0 1 .204-.11z"></path>
    <path fill-rule="nonzero"
        d="M4.446 2.14a.194.194 0 0 0-.13-.002.117.117 0 0 0-.073.067.103.103 0 0 0 .01.084.175.175 0 0 0 .096.078.194.194 0 0 0 .13.003.117.117 0 0 0 .073-.067.103.103 0 0 0-.01-.085.175.175 0 0 0-.096-.078zm-.182-.153a.355.355 0 0 1 .419.154.26.26 0 0 1-.152.38.355.355 0 0 1-.418-.155.26.26 0 0 1 .151-.379z"></path>
    <path fill-rule="nonzero"
        d="M4.637 1.461a.164.164 0 0 0-.101.03.098.098 0 0 0-.042.084.1.1 0 0 0 .002.014.08.08 0 0 1-.088.096.164.164 0 0 0-.101.029.098.098 0 0 0-.042.069.12.12 0 0 0 .035.092.196.196 0 0 0 .126.06.171.171 0 0 0 .111-.024.1.1 0 0 0 .046-.069v-.004a.1.1 0 0 0 0-.03h-.001a.08.08 0 0 1 .087-.095c.04 0 .076-.01.102-.03a.098.098 0 0 0 .042-.083.1.1 0 0 0-.002-.015.08.08 0 0 1 .087-.096c.04.002.076-.01.102-.028a.098.098 0 0 0 .042-.085.1.1 0 0 0-.002-.014.08.08 0 0 1 .087-.096c.04.001.076-.01.102-.029a.098.098 0 0 0 .042-.069.12.12 0 0 0-.036-.092.196.196 0 0 0-.125-.06.171.171 0 0 0-.111.024.1.1 0 0 0-.046.069l-.001.004a.1.1 0 0 0 .002.03.08.08 0 0 1-.088.095.164.164 0 0 0-.101.03.098.098 0 0 0-.042.083.1.1 0 0 0 .002.015.08.08 0 0 1-.088.095zm-.196-.1a.31.31 0 0 1 .125-.053.256.256 0 0 1 .104-.17.31.31 0 0 1 .125-.053.258.258 0 0 1 .116-.178.33.33 0 0 1 .232-.048.357.357 0 0 1 .21.11c.054.058.084.135.077.214a.256.256 0 0 1-.107.183.31.31 0 0 1-.124.054.256.256 0 0 1-.105.17.31.31 0 0 1-.124.053.256.256 0 0 1-.105.17.31.31 0 0 1-.124.053.258.258 0 0 1-.117.178.33.33 0 0 1-.23.048.357.357 0 0 1-.211-.11.277.277 0 0 1-.077-.214.256.256 0 0 1 .106-.183.31.31 0 0 1 .125-.054.256.256 0 0 1 .104-.17z"></path>
    <path fill-rule="nonzero"
        d="M5.32 1.334a.08.08 0 0 0-.158-.022c-.006.036-.02.073-.033.112-.035.097-.074.201-.04.37.038.196-.053.427-.054.428a.08.08 0 0 0 .149.058s.108-.275.061-.517c-.024-.125.006-.208.034-.284a.688.688 0 0 0 .04-.145z"></path>
    <path fill-rule="nonzero"
        d="M5.32 1.314a.08.08 0 0 0-.159.018c.008.073.02.154.04.234.02.082.046.164.082.238.12.245.063.411.063.412a.08.08 0 0 0 .151.05c0-.001.078-.227-.071-.532a.987.987 0 0 1-.07-.204 1.843 1.843 0 0 1-.036-.216z"></path>
    <path fill-rule="nonzero"
        d="M5.333 1.295a.08.08 0 0 0-.15.056c.055.144.124.223.27.39l.02.023v.001c.137.158.168.395.168.395a.08.08 0 0 0 .158-.02c0-.002-.037-.285-.204-.479a.08.08 0 0 0-.002-.002l-.06.052.06-.052-.02-.023c-.133-.152-.196-.224-.24-.341z"></path>
    <path fill="none" d="M0 0h6.827v6.827H0z"></path>
</svg>