<svg xmlns="http://www.w3.org/2000/svg" width="512" height="512" viewBox="0 0 135.467 135.467"
    id="octagonal">
    <path
        style="line-height:normal;font-variant-ligatures:normal;font-variant-position:normal;font-variant-caps:normal;font-variant-numeric:normal;font-variant-alternates:normal;font-variant-east-asian:normal;font-feature-settings:normal;font-variation-settings:normal;text-indent:0;text-align:start;text-decoration-line:none;text-decoration-style:solid;text-decoration-color:#000;text-transform:none;text-orientation:mixed;shape-padding:0;shape-margin:0;inline-size:0;isolation:auto;mix-blend-mode:normal"
        d="M67.703 0a2.887 2.887 0 0 1 2.072.844l18.146 18.15h25.666a2.887 2.887 0 0 1 2.885 2.884v25.667l18.15 18.147a2.887 2.887 0 0 1 0 4.082l-18.15 18.147v25.666a2.887 2.887 0 0 1-2.885 2.885H87.921l-18.146 18.15a2.887 2.887 0 0 1-4.083-.001l-18.149-18.15H21.88a2.887 2.887 0 0 1-2.886-2.884V87.921L.845 69.774a2.887 2.887 0 0 1 0-4.082l18.148-18.147V21.878a2.887 2.887 0 0 1 2.886-2.885h25.666L65.692.844A2.887 2.887 0 0 1 67.703 0Zm.03 6.967L50.78 23.92a2.887 2.887 0 0 1-2.04.846H24.765V48.74a2.887 2.887 0 0 1-.846 2.041L6.97 67.733 23.92 84.685a2.887 2.887 0 0 1 .846 2.04V110.7H48.74a2.887 2.887 0 0 1 2.039.846l16.954 16.952 16.951-16.952a2.887 2.887 0 0 1 2.042-.846H110.7V86.725a2.887 2.887 0 0 1 .846-2.04l16.951-16.952-16.951-16.952a2.887 2.887 0 0 1-.846-2.041V24.765H86.726a2.887 2.887 0 0 1-2.042-.846zm.047 24.687a2.887 2.887 0 0 1 1.994.844l8.877 8.878h12.553a2.887 2.887 0 0 1 2.885 2.885v12.554l8.876 8.877a2.887 2.887 0 0 1 0 4.082L94.09 78.65v12.554a2.887 2.887 0 0 1-2.885 2.885H78.651l-8.877 8.879a2.887 2.887 0 0 1-4.082 0l-8.876-8.879H44.262a2.887 2.887 0 0 1-2.887-2.885V78.65l-8.877-8.876a2.887 2.887 0 0 1 0-4.082l8.877-8.877V44.26a2.887 2.887 0 0 1 2.887-2.885h12.554l8.876-8.878a2.887 2.887 0 0 1 2.011-.844 2.887 2.887 0 0 1 .077 0zm-.047 6.967-7.681 7.681a2.887 2.887 0 0 1-2.041.846H47.149v10.863a2.887 2.887 0 0 1-.846 2.04l-7.681 7.682 7.681 7.68a2.887 2.887 0 0 1 .846 2.042v10.862H58.01a2.887 2.887 0 0 1 2.041.846l7.68 7.681 7.682-7.681a2.887 2.887 0 0 1 2.041-.846h10.862V77.455a2.887 2.887 0 0 1 .846-2.041l7.681-7.681-7.68-7.682a2.887 2.887 0 0 1-.847-2.04V47.148H77.455a2.887 2.887 0 0 1-2.041-.846z"
        color="#000" font-family="sans-serif" font-weight="400" overflow="visible"
        paint-order="stroke fill markers"></path>
</svg>