<svg xmlns="http://www.w3.org/2000/svg" viewBox="0 0 64 64" id="mosque"><path d="M60,61H4a1,1,0,0,1-1-1V33a1,1,0,0,1,1-1H60a1,1,0,0,1,1,1V60A1,1,0,0,1,60,61ZM5,59H59V34H5Z"></path><path d="M16 61H4a1 1 0 0 1-1-1V33a1 1 0 0 1 1-1H16a1 1 0 0 1 1 1V60A1 1 0 0 1 16 61zM5 59H15V34H5zM60 61H48a1 1 0 0 1-1-1V33a1 1 0 0 1 1-1H60a1 1 0 0 1 1 1V60A1 1 0 0 1 60 61zM49 59H59V34H49z"></path><path d="M12.67 46H7.33a1 1 0 0 1-1-1V39.33a1.06 1.06 0 0 1 .23-.64l.49-.58a8.23 8.23 0 0 1 2.49-2 1 1 0 0 1 .93 0A8.11 8.11 0 0 1 12.84 38l.59.68a1 1 0 0 1 .24.65V45A1 1 0 0 1 12.67 46zM8.33 44h3.34V39.7l-.34-.39A6.41 6.41 0 0 0 10 38.15a6 6 0 0 0-1.41 1.24l-.26.31zM56.67 46H51.33a1 1 0 0 1-1-1V39.33a1.06 1.06 0 0 1 .23-.64l.49-.58a8.23 8.23 0 0 1 2.49-2 1 1 0 0 1 .93 0A8.11 8.11 0 0 1 56.84 38l.59.68a1 1 0 0 1 .24.65V45A1 1 0 0 1 56.67 46zm-4.34-2h3.34V39.7l-.34-.39A6.41 6.41 0 0 0 54 38.15a6 6 0 0 0-1.41 1.24l-.26.31zM13 34H6a1 1 0 0 1-1-1V14a1 1 0 0 1 1-1h7a1 1 0 0 1 1 1V33A1 1 0 0 1 13 34zM7 32h5V15H7zM58 34H51a1 1 0 0 1-1-1V14a1 1 0 0 1 1-1h7a1 1 0 0 1 1 1V33A1 1 0 0 1 58 34zm-6-2h5V15H52zM48 33.79H16a1 1 0 0 1-1-1V26.21a1 1 0 0 1 1-1H48a1 1 0 0 1 1 1v6.58A1 1 0 0 1 48 33.79zm-31-2H47V27.21H17z"></path><path d="M21.33,33.79H16a1,1,0,0,1-1-1V26.21a1,1,0,0,1,1-1h5.33a1,1,0,0,1,1,1v6.58A1,1,0,0,1,21.33,33.79Zm-4.33-2h3.33V27.21H17Z"></path><path d="M26.67,33.79H21.33a1,1,0,0,1-1-1V26.21a1,1,0,0,1,1-1h5.34a1,1,0,0,1,1,1v6.58A1,1,0,0,1,26.67,33.79Zm-4.34-2h3.34V27.21H22.33Z"></path><path d="M32,33.79H26.67a1,1,0,0,1-1-1V26.21a1,1,0,0,1,1-1H32a1,1,0,0,1,1,1v6.58A1,1,0,0,1,32,33.79Zm-4.33-2H31V27.21H27.67Z"></path><path d="M37.33,33.79H32a1,1,0,0,1-1-1V26.21a1,1,0,0,1,1-1h5.33a1,1,0,0,1,1,1v6.58A1,1,0,0,1,37.33,33.79Zm-4.33-2h3.33V27.21H33Z"></path><path d="M42.67,33.79H37.33a1,1,0,0,1-1-1V26.21a1,1,0,0,1,1-1h5.34a1,1,0,0,1,1,1v6.58A1,1,0,0,1,42.67,33.79Zm-4.34-2h3.34V27.21H38.33Z"></path><path d="M48 33.79H42.67a1 1 0 0 1-1-1V26.21a1 1 0 0 1 1-1H48a1 1 0 0 1 1 1v6.58A1 1 0 0 1 48 33.79zm-4.33-2H47V27.21H43.67zM13 14.5a1 1 0 0 1-1-1 2.51 2.51 0 0 0-1.4-2.25c-.53-.26-.79-.83-1.13-1.56l0-.07-.09.19a3.4 3.4 0 0 1-1.1 1.53A2.5 2.5 0 0 0 7 13.5a1 1 0 0 1-2 0A4.49 4.49 0 0 1 7.16 9.66a7.82 7.82 0 0 0 .4-.74C8 8 8.52 7 9.5 7s1.38.94 1.79 1.86c.1.21.24.52.33.67a4.48 4.48 0 0 1 2.38 4A1 1 0 0 1 13 14.5zM58 14.5a1 1 0 0 1-1-1 2.51 2.51 0 0 0-1.4-2.25c-.53-.26-.79-.83-1.13-1.56l0-.07-.09.19a3.4 3.4 0 0 1-1.1 1.53A2.5 2.5 0 0 0 52 13.5a1 1 0 0 1-2 0 4.49 4.49 0 0 1 2.16-3.84 7.82 7.82 0 0 0 .4-.74C53 8 53.52 7 54.5 7s1.38.94 1.79 1.86c.1.21.24.52.33.67a4.48 4.48 0 0 1 2.38 4A1 1 0 0 1 58 14.5z"></path><path d="M48 27H16a1 1 0 0 1-1-1A17 17 0 0 1 28.58 9.34a16 16 0 0 0 .91-2.44C30.25 4.55 30.75 3 32 3s1.77 1.55 2.54 3.9a17.21 17.21 0 0 0 .92 2.45A17 17 0 0 1 49 26 1 1 0 0 1 48 27zM17 25H47A15 15 0 0 0 34.85 11.27c-1-.19-1.43-1.35-2.21-3.75C32.47 7 32.23 6.28 32 5.71c-.22.57-.45 1.29-.62 1.8-.77 2.4-1.18 3.56-2.19 3.75A15 15 0 0 0 17 25zM32 61H16a1 1 0 0 1-1-1V45a1 1 0 0 1 .19-.59 10.9 10.9 0 0 1 17.62 0 1 1 0 1 1-1.62 1.18A8.9 8.9 0 0 0 17 45.33V59H32a1 1 0 0 1 0 2z"></path><path d="M48,61H32a1,1,0,0,1,0-2H47V45.33a8.9,8.9,0,0,0-14.19.26,1,1,0,0,1-1.4.22,1,1,0,0,1-.22-1.4,10.9,10.9,0,0,1,17.62,0A1,1,0,0,1,49,45V60A1,1,0,0,1,48,61Z"></path><path d="M44.69 61H34a1 1 0 0 1-1-1V48.2a1 1 0 0 1 .15-.53 7 7 0 0 1 12.37 0 1 1 0 0 1 .15.53V60A1 1 0 0 1 44.69 61zM35 59h8.67V48.49a5 5 0 0 0-8.67 0zM30 61H19.34a1 1 0 0 1-1-1V48.2a1 1 0 0 1 .15-.53A7.25 7.25 0 0 1 24.67 44a7.27 7.27 0 0 1 6.19 3.67 1.08 1.08 0 0 1 .15.53V60A1 1 0 0 1 30 61zm-9.67-2H29V48.49a5 5 0 0 0-8.67 0z"></path></svg>